<?xml version="1.0" encoding="utf-8"?>
<svg version="1.1" xmlns:xlink="http://www.w3.org/1999/xlink" width="28px" height="44px" xmlns="http://www.w3.org/2000/svg">
  <g transform="matrix(1 0 0 1 -512 -326 )">
    <path d="M 27.5189003436426 2.64529058116232  C 27.8396334478809 2.93921175684702  28 3.27722110888443  28 3.65931863727455  C 28 4.04141616566466  27.8396334478809 4.37942551770207  27.5189003436426 4.67334669338677  L 8.61168384879725 22  L 27.5189003436426 39.3266533066132  C 27.8396334478809 39.6205744822979  28 39.9585838343353  28 40.3406813627254  C 28 40.7227788911156  27.8396334478809 41.060788243153  27.5189003436426 41.3547094188377  L 25.1134020618557 43.5591182364729  C 24.7926689576174 43.8530394121576  24.4238258877434 44  24.0068728522337 44  C 23.5899198167239 44  23.2210767468499 43.8530394121576  22.9003436426117 43.5591182364729  L 0.481099656357388 23.0140280561122  C 0.16036655211913 22.7201068804275  0 22.3820975283901  0 22  C 0 21.6179024716099  0.16036655211913 21.2798931195725  0.481099656357388 20.9859719438878  L 22.9003436426117 0.440881763527055  C 23.2210767468499 0.14696058784235  23.5899198167239 0  24.0068728522337 0  C 24.4238258877434 0  24.7926689576174 0.14696058784235  25.1134020618557 0.440881763527055  L 27.5189003436426 2.64529058116232  Z " fill-rule="nonzero" fill="#8c8c8c" stroke="none" transform="matrix(1 0 0 1 512 326 )" />
  </g>
</svg>