<?xml version="1.0" encoding="utf-8"?>
<svg version="1.1" xmlns:xlink="http://www.w3.org/1999/xlink" width="28px" height="44px" xmlns="http://www.w3.org/2000/svg">
  <g transform="matrix(1 0 0 1 -954 -326 )">
    <path d="M 27.5189003436426 20.9859719438878  C 27.8396334478809 21.2798931195725  28 21.6179024716099  28 22  C 28 22.3820975283901  27.8396334478809 22.7201068804275  27.5189003436426 23.0140280561122  L 5.09965635738832 43.5591182364729  C 4.77892325315006 43.8530394121576  4.41008018327606 44  3.99312714776632 44  C 3.57617411225659 44  3.20733104238259 43.8530394121576  2.88659793814433 43.5591182364729  L 0.481099656357388 41.3547094188377  C 0.16036655211913 41.060788243153  0 40.7227788911156  0 40.3406813627254  C 0 39.9585838343353  0.16036655211913 39.6205744822979  0.481099656357388 39.3266533066132  L 19.3883161512027 22  L 0.481099656357388 4.67334669338677  C 0.16036655211913 4.37942551770207  0 4.04141616566466  0 3.65931863727455  C 0 3.27722110888443  0.16036655211913 2.93921175684702  0.481099656357388 2.64529058116232  L 2.88659793814433 0.440881763527055  C 3.20733104238259 0.14696058784235  3.57617411225659 0  3.99312714776632 0  C 4.41008018327606 0  4.77892325315006 0.14696058784235  5.09965635738832 0.440881763527055  L 27.5189003436426 20.9859719438878  Z " fill-rule="nonzero" fill="#8c8c8c" stroke="none" transform="matrix(1 0 0 1 954 326 )" />
  </g>
</svg>