<?xml version="1.0" encoding="utf-8"?>
<svg version="1.1" xmlns:xlink="http://www.w3.org/1999/xlink" width="50px" height="50px" xmlns="http://www.w3.org/2000/svg">
  <g transform="matrix(1 0 0 1 -20 -15 )">
    <path d="M 12.451171875 3.35286458333333  C 16.2814670138889 1.11762152777777  20.4644097222222 0  25 0  C 29.5355902777778 0  33.7185329861111 1.11762152777777  37.548828125 3.35286458333333  C 41.3791232638889 5.58810763888888  44.4118923611111 8.62087673611111  46.6471354166667 12.451171875  C 48.8823784722222 16.2814670138889  50 20.4644097222222  50 25  C 50 29.5355902777778  48.8823784722222 33.7185329861111  46.6471354166667 37.548828125  C 44.4118923611111 41.3791232638889  41.3791232638889 44.4118923611111  37.548828125 46.6471354166667  C 33.7185329861111 48.8823784722222  29.5355902777778 50  25 50  C 20.4644097222222 50  16.2814670138889 48.8823784722222  12.451171875 46.6471354166667  C 8.62087673611111 44.4118923611111  5.58810763888889 41.3791232638889  3.35286458333333 37.548828125  C 1.11762152777778 33.7185329861111  0 29.5355902777778  0 25  C 0 20.4644097222222  1.11762152777778 16.2814670138889  3.35286458333333 12.451171875  C 5.58810763888889 8.62087673611111  8.62087673611111 5.58810763888888  12.451171875 3.35286458333333  Z M 28.8736979166667 41.357421875  C 29.0690104166667 41.1512586805556  29.1666666666667 40.8962673611111  29.1666666666667 40.5924479166667  L 29.1666666666667 34.4075520833333  C 29.1666666666667 34.1037326388889  29.0690104166667 33.8487413194444  28.8736979166667 33.642578125  C 28.6783854166667 33.4364149305556  28.4396701388889 33.3333333333333  28.1575520833333 33.3333333333333  L 21.9075520833333 33.3333333333333  C 21.6254340277778 33.3333333333333  21.3758680555556 33.4418402777778  21.1588541666667 33.6588541666667  C 20.9418402777778 33.8758680555556  20.8333333333333 34.1254340277778  20.8333333333333 34.4075520833333  L 20.8333333333333 40.5924479166667  C 20.8333333333333 40.8745659722222  20.9418402777778 41.1241319444444  21.1588541666667 41.3411458333333  C 21.3758680555556 41.5581597222222  21.6254340277778 41.6666666666667  21.9075520833333 41.6666666666667  L 28.1575520833333 41.6666666666667  C 28.4396701388889 41.6666666666667  28.6783854166667 41.5635850694444  28.8736979166667 41.357421875  Z M 28.759765625 29.9641927083333  C 28.9659288194444 29.8014322916667  29.0798611111111 29.6115451388889  29.1015625 29.39453125  L 29.6875 9.1796875  C 29.6875 8.91927083333333  29.5789930555556 8.72395833333333  29.3619791666667 8.59375  C 29.1449652777778 8.42013888888888  28.8845486111111 8.33333333333333  28.5807291666667 8.33333333333333  L 21.4192708333333 8.33333333333333  C 21.1154513888889 8.33333333333333  20.8550347222222 8.42013888888888  20.6380208333333 8.59375  C 20.4210069444444 8.72395833333333  20.3125 8.91927083333333  20.3125 9.1796875  L 20.8658854166667 29.39453125  C 20.8658854166667 29.6115451388889  20.9743923611111 29.8014322916667  21.19140625 29.9641927083333  C 21.4084201388889 30.126953125  21.6688368055556 30.2083333333333  21.97265625 30.2083333333333  L 27.9947916666667 30.2083333333333  C 28.2986111111111 30.2083333333333  28.5536024305556 30.126953125  28.759765625 29.9641927083333  Z " fill-rule="nonzero" fill="#d9001b" stroke="none" transform="matrix(1 0 0 1 20 15 )" />
  </g>
</svg>